<svg xmlns="http://www.w3.org/2000/svg" width="15" height="20" viewBox="0 0 15 20" fill="none">
  <path d="M7.67115 18.9131L13.0819 10.3374C13.6706 9.4005 13.9872 8.33236 13.9996 7.24163C14.012 6.15091 13.7197 5.07653 13.1525 4.12781C12.5853 3.17909 11.7633 2.38988 10.7703 1.84048C9.77728 1.29107 8.64862 1.00108 7.49915 1C6.34941 1.00016 5.22029 1.28971 4.22696 1.8391C3.23363 2.3885 2.41163 3.17809 1.84481 4.12733C1.27799 5.07657 0.986641 6.15149 1.00047 7.24245C1.0143 8.33341 1.33282 9.40137 1.92353 10.3374L7.33432 18.9131C7.35252 18.9398 7.37747 18.9617 7.40688 18.9769C7.4363 18.9921 7.46925 19 7.50273 19C7.53621 19 7.56916 18.9921 7.59858 18.9769C7.628 18.9617 7.65294 18.9398 7.67115 18.9131Z" stroke="#FAF1FF" stroke-miterlimit="10"/>
  <path d="M6.35577 9.39782C6.64669 9.3887 6.72531 9.08619 6.7635 8.94178C6.77249 8.90606 6.78035 8.85361 6.79046 8.78977C6.83876 8.4751 6.9376 7.82069 7.46439 7.67171C7.54303 7.6548 7.6272 7.65354 7.70686 7.6681C7.78652 7.68265 7.85831 7.7124 7.91368 7.7538C8.12709 7.89365 8.23717 8.36185 8.31692 8.80269C8.34949 8.9813 8.41688 9.35221 8.85606 9.35373C8.89254 9.35652 8.92948 9.35411 8.9645 9.34664C8.99951 9.33918 9.03183 9.32684 9.05937 9.31041C9.29974 9.18424 9.47945 8.77153 9.59627 8.08291C9.61816 7.90739 9.61816 7.73094 9.59627 7.55542C9.58185 7.41046 9.57922 7.26507 9.5884 7.11991C9.62171 6.92077 9.69268 6.72536 9.79957 6.53846C9.8445 6.44801 9.89055 6.35452 9.92762 6.26256C10.0399 5.97753 10.1422 5.67275 10.0826 5.37024C10.022 5.05406 9.57268 4.75535 9.19191 4.65958C8.88639 4.58358 8.5629 4.65958 8.25065 4.73559C8.05122 4.79165 7.84018 4.82652 7.62501 4.83896C7.37663 4.83374 7.13272 4.7928 6.90952 4.71887C6.62872 4.64286 6.33893 4.56077 5.96489 4.62082C5.42575 4.70747 4.67768 5.18859 4.96298 6.1151C5.02395 6.29779 5.11123 6.47599 5.22357 6.64715C5.36509 6.87973 5.48752 7.08114 5.4718 7.39657C5.44821 7.86173 5.55941 8.9927 6.0424 9.31117C6.07975 9.3383 6.12471 9.36014 6.17465 9.37541C6.2246 9.39067 6.27853 9.39907 6.33331 9.4001L6.35577 9.39782ZM5.32915 6.61751C5.21734 6.45022 5.13042 6.27581 5.06969 6.09686C4.80124 5.22279 5.49089 4.77055 5.98848 4.69075C6.32545 4.63602 6.59053 4.70823 6.86572 4.78499C7.10294 4.86326 7.3623 4.90604 7.62614 4.9104C7.85333 4.89826 8.07624 4.86183 8.28659 4.80247C8.59323 4.72647 8.88414 4.66034 9.15147 4.72647C9.50416 4.8154 9.91751 5.09738 9.97254 5.37632C10.0276 5.65527 9.9366 5.96613 9.8254 6.24127C9.78721 6.33096 9.74228 6.42217 9.69848 6.51262C9.58828 6.70587 9.51542 6.90795 9.4817 7.11383C9.47137 7.26176 9.474 7.40998 9.48956 7.5577C9.50978 7.72921 9.50978 7.90153 9.48956 8.07303C9.33792 8.94786 9.11328 9.18576 8.99197 9.24961C8.9752 9.25957 8.95557 9.26707 8.93431 9.27165C8.91304 9.27623 8.89061 9.27778 8.86842 9.27621H8.86168C8.55841 9.27621 8.47529 9.04287 8.42924 8.79129C8.31692 8.13991 8.18438 7.82297 7.99231 7.69756C7.92225 7.6462 7.83183 7.60958 7.73185 7.59205C7.63186 7.57453 7.52654 7.57686 7.42845 7.59875C6.83427 7.7652 6.7343 8.42418 6.68038 8.77837C6.6714 8.84297 6.66354 8.8939 6.65455 8.93038C6.62647 9.03679 6.55346 9.31953 6.35016 9.32637C6.30781 9.32682 6.26581 9.32108 6.22704 9.30953C6.18827 9.29799 6.15364 9.28092 6.12551 9.25949C5.6942 8.97142 5.5639 7.90733 5.58749 7.40113C5.60209 7.06594 5.46955 6.84781 5.32915 6.61751Z" stroke="#FAF1FF" stroke-width="0.5" stroke-miterlimit="10"/>
</svg>
