<svg xmlns="http://www.w3.org/2000/svg" width="15" height="16" viewBox="0 0 15 16" fill="none">
  <path d="M6.7644 0.989746H8.23513V2.20784C8.23513 2.22122 8.23244 2.23446 8.22723 2.24681C8.22202 2.25916 8.21438 2.27039 8.20475 2.27984C8.19511 2.2893 8.18368 2.2968 8.17109 2.30192C8.15851 2.30703 8.14502 2.30967 8.1314 2.30967H6.86814C6.85451 2.30967 6.84102 2.30703 6.82844 2.30192C6.81585 2.2968 6.80442 2.2893 6.79479 2.27984C6.78515 2.27039 6.77751 2.25916 6.7723 2.24681C6.76709 2.23446 6.7644 2.22122 6.7644 2.20784V0.989746Z" fill="#FAF1FF"/>
  <path d="M9.7902 0H5.2098C5.09393 0 5 0.0763828 5 0.170605V0.983241C5 1.07746 5.09393 1.15385 5.2098 1.15385H9.7902C9.90607 1.15385 10 1.07746 10 0.983241V0.170605C10 0.0763828 9.90607 0 9.7902 0Z" fill="#FAF1FF"/>
  <path d="M7.5 15.0001C11.0899 15.0001 14 12.1435 14 8.61966C14 5.09586 11.0899 2.23926 7.5 2.23926C3.91015 2.23926 1 5.09586 1 8.61966C1 12.1435 3.91015 15.0001 7.5 15.0001Z" stroke="#FAF1FF" stroke-miterlimit="10"/>
  <path d="M7.49995 9.40925C7.94434 9.40925 8.30459 9.05563 8.30459 8.61942C8.30459 8.18321 7.94434 7.82959 7.49995 7.82959C7.05556 7.82959 6.69531 8.18321 6.69531 8.61942C6.69531 9.05563 7.05556 9.40925 7.49995 9.40925Z" fill="#FAF1FF"/>
  <path d="M8.72333 9.29473L4.17994 4.83493C4.03216 4.68986 3.79255 4.68986 3.64477 4.83493L3.6446 4.8351C3.49681 4.98016 3.49681 5.21536 3.6446 5.36043L8.18799 9.82022C8.33577 9.96529 8.57538 9.96529 8.72316 9.82022L8.72333 9.82006C8.87112 9.67499 8.87112 9.43979 8.72333 9.29473Z" fill="#FAF1FF"/>
</svg>
