<svg xmlns="http://www.w3.org/2000/svg" width="15" height="15" viewBox="0 0 15 15" fill="none">
  <g clipPath="url(#clip0_177_206)">
    <path d="M11.8645 0.75C12.0985 0.75 12.339 0.802078 12.573 0.912744C12.807 1.02341 13.028 1.16662 13.236 1.35541C13.587 1.67439 13.8405 2.02591 14.003 2.42301C14.1655 2.81359 14.25 3.23673 14.25 3.69241C14.25 4.35641 14.094 5.06597 13.7755 5.8146C13.457 6.56322 13.028 7.31184 12.4885 8.05396C11.9361 8.81032 11.3277 9.52406 10.6685 10.1892C10.0068 10.8474 9.29627 11.4546 8.543 12.0054C7.802 12.5392 7.061 12.9688 6.3265 13.2813C5.5855 13.5938 4.877 13.75 4.201 13.75C3.759 13.75 3.3365 13.6719 2.9465 13.5156C2.55 13.3594 2.186 13.112 1.861 12.767C1.4515 12.3504 1.25 11.8947 1.25 11.413C1.25 11.2307 1.289 11.0484 1.367 10.8857C1.445 10.7164 1.562 10.5667 1.731 10.4495L3.8565 8.93928C4.019 8.82211 4.1685 8.73748 4.3115 8.67889C4.448 8.62031 4.5845 8.58776 4.708 8.58776C4.864 8.58776 5.02 8.63332 5.1695 8.72446C5.319 8.80909 5.475 8.93277 5.631 9.08901L6.1445 9.58375C6.216 9.65536 6.3005 9.68791 6.4045 9.68791C6.4565 9.68791 6.502 9.6814 6.554 9.66838C6.606 9.64885 6.645 9.62932 6.684 9.6163C6.8985 9.49912 7.178 9.29732 7.516 9.01089C7.854 8.71795 8.1985 8.40548 8.543 8.06698C8.8875 7.71545 9.206 7.37694 9.4985 7.03192C9.7845 6.69341 9.9795 6.41349 10.0965 6.19216C10.1095 6.15961 10.129 6.12056 10.1485 6.07499C10.168 6.02291 10.1745 5.97083 10.1745 5.91224C10.1745 5.80158 10.1355 5.71695 10.064 5.64534L9.5765 5.1506C9.414 4.98786 9.2905 4.83162 9.2125 4.6819C9.1215 4.53217 9.076 4.38245 9.076 4.2197C9.076 4.09602 9.102 3.96582 9.1605 3.82261C9.219 3.67939 9.3035 3.52967 9.414 3.36692L10.9415 1.21219C11.0585 1.04294 11.195 0.925763 11.3575 0.854156C11.52 0.789058 11.6825 0.75 11.8645 0.75Z" stroke="#FAF1FF" stroke-miterlimit="10"/>
  </g>
  <defs>
    <clipPath id="clip0_177_206">
      <rect width="15" height="15" fill="white" transform="translate(0 15) rotate(-90)"/>
    </clipPath>
  </defs>
</svg>
