<svg width="42" height="42" viewBox="0 0 42 42" fill="none" xmlns="http://www.w3.org/2000/svg">
<g id="step1 icon">
<path id="Vector" d="M13.9217 14.5301L10.5117 17.8701L20.5917 30.2201L30.3417 14.5201L26.7317 11.3401L19.9217 21.9601L13.9217 14.5301Z" fill="#EB712E"/>
<path id="Vector_2" d="M23.1016 41.56H22.3916C12.5116 41.2 5.26162 37 2.12162 29.73C-1.01838 22.46 0.511617 13 5.98162 6.82995C8.36041 4.11008 11.4362 2.09073 14.8776 0.989404C18.319 -0.111923 21.9957 -0.253489 25.5116 0.579954C33.6116 2.72995 39.5116 8.27995 41.2716 15.42C42.1418 18.7499 42.2336 22.2355 41.5399 25.6067C40.8463 28.9778 39.3858 32.144 37.2716 34.86C35.5741 36.9801 33.4157 38.6855 30.9604 39.8464C28.5051 41.0074 25.8174 41.5934 23.1016 41.56ZM20.9616 0.999954C18.2665 1.02183 15.606 1.61001 13.1528 2.72634C10.6997 3.84268 8.50854 5.46223 6.72162 7.47995C1.51162 13.39 0.0116172 22.38 3.02162 29.34C6.03162 36.3 12.8916 40.23 22.4216 40.56C25.103 40.6985 27.7789 40.1977 30.2287 39.0989C32.6784 38 34.832 36.3346 36.5116 34.24C38.5341 31.6433 39.9301 28.6149 40.591 25.3906C41.2518 22.1662 41.1596 18.8329 40.3216 15.65C38.6216 8.86995 32.9916 3.58995 25.2316 1.52995C23.8374 1.16834 22.4019 0.99017 20.9616 0.999954Z" fill="#2E2E2E"/>
<path id="Vector_3" d="M21.3915 30.7099C21.3188 30.71 21.2469 30.6939 21.1812 30.6628C21.1155 30.6316 21.0575 30.5863 21.0115 30.5299L10.9315 18.1799C10.8493 18.0897 10.8037 17.972 10.8037 17.8499C10.8037 17.7279 10.8493 17.6102 10.9315 17.5199L14.3515 14.1799C14.3993 14.1311 14.4571 14.0933 14.521 14.0691C14.5849 14.0449 14.6534 14.035 14.7215 14.0399C14.7907 14.0434 14.8584 14.0611 14.9204 14.0921C14.9824 14.1231 15.0372 14.1666 15.0815 14.2199L20.6515 21.1199L27.0915 11.1199C27.1265 11.0579 27.1754 11.0048 27.2344 10.9649C27.2934 10.925 27.3609 10.8993 27.4315 10.8899C27.5013 10.8814 27.5721 10.8877 27.6393 10.9083C27.7065 10.929 27.7686 10.9636 27.8215 11.0099L31.5115 14.1499C31.5989 14.2269 31.6568 14.3319 31.675 14.4469C31.6933 14.5619 31.6708 14.6797 31.6115 14.7799L21.8115 30.4799C21.7702 30.545 21.7144 30.5996 21.6484 30.6394C21.5825 30.6793 21.5083 30.7035 21.4315 30.7099H21.3915ZM11.9715 17.9099L21.3415 29.3799L30.5115 14.6099L27.6415 12.0899L21.1415 22.2199C21.098 22.2852 21.0404 22.3398 20.9728 22.3796C20.9053 22.4194 20.8296 22.4435 20.7515 22.4499C20.6729 22.4535 20.5946 22.4381 20.5233 22.405C20.4519 22.3719 20.3896 22.3222 20.3415 22.2599L14.6815 15.2599L11.9715 17.9099Z" fill="#2E2E2E"/>
</g>
</svg>
