<svg width="29" height="50" viewBox="0 0 29 50" fill="none" xmlns="http://www.w3.org/2000/svg">
<g id="Layer_2" clip-path="url(#clip0_302_89)">
<path id="Vector" d="M9.24609 24.3526L10.5327 42.5828L15.088 49.4605L18.9479 42.6835L20.4153 24.2734L9.24609 24.3526Z" stroke="#372D95" stroke-width="0.5" stroke-miterlimit="10"/>
<path id="Vector_2" d="M15.0962 49.8201C15.155 49.818 15.2122 49.8003 15.2624 49.7688C15.3126 49.7373 15.3541 49.693 15.3828 49.6403L19.2626 42.8633C19.2882 42.8166 19.3048 42.7653 19.3116 42.7122L20.7866 24.3021C20.7914 24.2536 20.7858 24.2046 20.7701 24.1586C20.7544 24.1126 20.729 24.0707 20.6957 24.036C20.665 23.9984 20.6264 23.9685 20.5828 23.9486C20.5392 23.9286 20.4917 23.9191 20.444 23.9209L9.21714 24C9.17019 23.9988 9.12353 24.0079 9.08018 24.0265C9.03683 24.045 8.99775 24.0728 8.96548 24.1079C8.93401 24.1439 8.90978 24.186 8.89418 24.2316C8.87858 24.2773 8.87193 24.3257 8.8746 24.3741L10.1679 42.6115C10.1693 42.6735 10.1887 42.7337 10.2238 42.7842L14.8026 49.6403C14.8334 49.6895 14.8759 49.7299 14.926 49.7575C14.9762 49.7852 15.0323 49.7993 15.0892 49.7986L15.0962 49.8201ZM9.58764 24.705L20.0735 24.6259L18.6335 42.5683L15.0683 48.8057L10.8739 42.4604L9.58764 24.705Z" stroke="#372D95" stroke-width="0.5" stroke-miterlimit="10"/>
<path id="Vector_3" d="M5.5815 19.9568L5.49512 25.3741L24.4356 25.5395L24.522 20.6259L5.5815 19.9568Z" stroke="#372D95" stroke-width="0.5" stroke-miterlimit="10"/>
<path id="Vector_4" d="M24.8067 25.5467L24.8933 20.6331C24.8942 20.5868 24.886 20.5407 24.8691 20.4976C24.8523 20.4545 24.827 20.4151 24.7949 20.3817C24.7627 20.3483 24.7243 20.3215 24.6818 20.3029C24.6393 20.2843 24.5935 20.2743 24.5471 20.2734L5.60086 19.6043C5.55351 19.6017 5.50612 19.6086 5.46151 19.6247C5.41691 19.6408 5.376 19.6656 5.34123 19.6978C5.27393 19.7647 5.23517 19.8549 5.23305 19.9496L5.1465 25.3669C5.14557 25.4629 5.18173 25.5557 5.24747 25.6259C5.31522 25.691 5.4058 25.7272 5.4999 25.7266L24.4533 25.8993C24.4997 25.8993 24.5457 25.8901 24.5886 25.8724C24.6314 25.8547 24.6704 25.8287 24.7032 25.796C24.736 25.7633 24.7621 25.7244 24.7798 25.6816C24.7976 25.6389 24.8067 25.593 24.8067 25.5467ZM5.9182 20.3237L24.1793 20.964L24.1071 25.1798L5.83886 25.0216L5.9182 20.3237Z" stroke="#372D95" stroke-width="0.5" stroke-miterlimit="10"/>
<path id="Vector_5" d="M3.99625 21.2878L9.65799 21.3597L23.4539 21.4676H25.941C25.941 21 25.941 20.5324 25.9775 20.072C26.1311 17.7338 27.2138 15.4964 27.8428 13.2518C28.5939 11.024 28.88 8.67007 28.684 6.33094C28.3695 4.0072 26.058 1.71224 23.9952 0.964038C21.3326 9.46728e-06 18.3408 2.36692 15.5245 2.41728C12.0426 2.47483 10.0237 -0.122293 6.48332 0.719434C3.99625 1.259 -0.392691 4.61152 1.21659 12.1223C2.02854 15.9281 3.82069 17.741 3.99625 21.2878Z" stroke="#372D95" stroke-width="0.5" stroke-miterlimit="10"/>
<path id="Vector_6" d="M26.2146 21.741C26.2809 21.6734 26.3177 21.5831 26.3171 21.4892C26.3171 20.9856 26.3171 20.5396 26.3171 20.1223C26.4995 18.5551 26.8858 17.0173 27.4665 15.5468C27.7155 14.8273 27.9717 14.1079 28.1987 13.3885C28.9576 11.1126 29.2464 8.71072 29.048 6.32373C28.7258 3.80574 26.2366 1.43884 24.1353 0.661859C22.4368 0.0503477 20.6577 0.661859 18.9372 1.25179C17.8454 1.68971 16.6928 1.96376 15.5181 2.06474C14.1622 2.02245 12.8304 1.7014 11.6085 1.12229C10.0637 0.503585 8.46762 -0.129508 6.39568 0.345312C3.41589 1.02876 -0.72068 4.84891 0.853412 12.2302C1.19766 13.6821 1.68817 15.0968 2.31768 16.4532C3.06694 17.9894 3.52352 19.6475 3.66481 21.3453C3.66859 21.4344 3.70728 21.5186 3.77278 21.5802C3.83828 21.6419 3.92552 21.6763 4.01624 21.6762H4.38963L9.68297 21.741L19.3618 21.7914L25.951 21.8489C26.0001 21.8496 26.0489 21.8404 26.0942 21.8218C26.1395 21.8033 26.1805 21.7758 26.2146 21.741ZM2.94732 16.1439C2.34914 14.8271 1.88325 13.4561 1.55626 12.0503C0.0919905 5.20143 3.84785 1.65466 6.55675 1.03596C8.37977 0.611499 9.84404 1.17984 11.3083 1.77697C12.6202 2.39378 14.0496 2.73207 15.5034 2.76977C16.7618 2.67452 17.9971 2.38562 19.1641 1.91366C20.8407 1.34531 22.4221 0.798549 23.8791 1.32373C25.7973 2.04315 28.0449 4.20143 28.3378 6.40287C28.5247 8.69583 28.2434 11.0024 27.5105 13.187C27.3128 13.9065 27.0566 14.6259 26.7783 15.3453C26.1693 16.8719 25.7681 18.4709 25.585 20.1007C25.585 20.4316 25.585 20.777 25.5484 21.1583L19.3618 21.0863L9.66101 21.0072L4.36766 20.9424C4.17588 19.2751 3.69552 17.6522 2.94732 16.1439Z" stroke="#372D95" stroke-width="0.5" stroke-miterlimit="10"/>
<path id="Vector_7" d="M16.4899 4.79859C15.9146 4.78624 15.3404 4.7382 14.7702 4.6547C13.7823 4.62553 12.82 4.31235 11.985 3.74823C11.9746 3.73749 11.9664 3.72464 11.9607 3.71042C11.9551 3.69621 11.9521 3.68093 11.9521 3.66549C11.9521 3.65005 11.9551 3.63477 11.9607 3.62056C11.9664 3.60635 11.9746 3.59349 11.985 3.58276C11.9945 3.57186 12.006 3.56317 12.0187 3.55723C12.0315 3.55128 12.0453 3.54821 12.0592 3.54821C12.0731 3.54821 12.0869 3.55128 12.0997 3.55723C12.1124 3.56317 12.1239 3.57186 12.1334 3.58276C12.9451 4.12024 13.876 4.41816 14.8309 4.44607C15.8984 4.631 16.9897 4.58698 18.041 4.31657C18.6877 4.07799 19.3039 3.75414 19.8753 3.35254C19.8965 3.33181 19.9242 3.32031 19.9529 3.32031C19.9816 3.32031 20.0093 3.33181 20.0305 3.35254C20.0437 3.38066 20.0469 3.41296 20.0395 3.44341C20.032 3.47387 20.0144 3.50038 19.99 3.51801C19.4045 3.93584 18.7724 4.27418 18.1085 4.5252C17.5847 4.70178 17.0392 4.79393 16.4899 4.79859Z" stroke="#372D95" stroke-width="0.5" stroke-miterlimit="10"/>
<path id="Vector_8" d="M10.9134 29.0288C10.889 29.0296 10.8651 29.0215 10.8456 29.0058C10.8261 28.9902 10.8122 28.9678 10.8061 28.9425C10.8011 28.9239 10.7999 28.9044 10.8028 28.8853C10.8058 28.8662 10.8126 28.8481 10.8229 28.8322C10.8332 28.8164 10.8467 28.8032 10.8623 28.7936C10.878 28.7841 10.8954 28.7784 10.9134 28.777L18.3644 26.6187C18.378 26.6145 18.3923 26.6132 18.4064 26.6148C18.4206 26.6165 18.4343 26.6212 18.4467 26.6285C18.4592 26.6359 18.4702 26.6458 18.479 26.6577C18.4879 26.6696 18.4945 26.6832 18.4985 26.6979C18.5025 26.7125 18.5037 26.7279 18.5021 26.743C18.5006 26.7582 18.4962 26.7728 18.4894 26.7862C18.4825 26.7996 18.4733 26.8114 18.4622 26.8209C18.4511 26.8304 18.4384 26.8375 18.4247 26.8418L10.9738 29L10.9134 29.0288Z" stroke="#372D95" stroke-width="0.5" stroke-miterlimit="10"/>
<path id="Vector_9" d="M11.178 33.2518C11.1553 33.2502 11.1334 33.242 11.1146 33.2281C11.0958 33.2141 11.0808 33.195 11.0713 33.1727C11.0625 33.1431 11.0645 33.111 11.0769 33.0829C11.0893 33.0548 11.1112 33.0329 11.138 33.0216L18.2831 30.2806C18.2967 30.2749 18.3111 30.2723 18.3257 30.2729C18.3402 30.2735 18.3544 30.2773 18.3675 30.284C18.3807 30.2907 18.3924 30.3003 18.4019 30.3121C18.4115 30.3239 18.4188 30.3376 18.4232 30.3525C18.4285 30.3671 18.4309 30.3827 18.4303 30.3984C18.4298 30.4141 18.4263 30.4294 18.42 30.4436C18.4138 30.4577 18.4049 30.4703 18.394 30.4807C18.3831 30.491 18.3703 30.4988 18.3565 30.5036L11.2114 33.2446L11.178 33.2518Z" stroke="#372D95" stroke-width="0.5" stroke-miterlimit="10"/>
<path id="Vector_10" d="M11.5916 37.4101C11.5636 37.4149 11.535 37.4073 11.5121 37.3891C11.4892 37.3709 11.4739 37.3435 11.4695 37.313C11.4652 37.2825 11.4721 37.2513 11.4888 37.2263C11.5055 37.2014 11.5306 37.1847 11.5586 37.1799L18.0424 34.5324C18.0556 34.5262 18.0698 34.5231 18.0842 34.5231C18.0985 34.5231 18.1127 34.5263 18.1259 34.5325C18.139 34.5387 18.1509 34.5477 18.1608 34.5591C18.1706 34.5704 18.1782 34.5839 18.1832 34.5986C18.1881 34.6132 18.1902 34.6289 18.1895 34.6445C18.1887 34.6601 18.185 34.6754 18.1786 34.6894C18.1722 34.7034 18.1633 34.7158 18.1524 34.726C18.1414 34.7361 18.1287 34.7437 18.115 34.7482L11.6575 37.4101H11.5916Z" stroke="#372D95" stroke-width="0.5" stroke-miterlimit="10"/>
<path id="Vector_11" d="M11.6686 41.5467C11.6468 41.5465 11.6254 41.5397 11.6069 41.527C11.5884 41.5143 11.5734 41.4962 11.5637 41.4748C11.5586 41.4602 11.5562 41.4445 11.5567 41.4289C11.5573 41.4132 11.5607 41.3979 11.5668 41.3837C11.573 41.3696 11.5817 41.357 11.5924 41.3466C11.6031 41.3363 11.6157 41.3285 11.6293 41.3237L17.844 38.6834C17.8692 38.679 17.895 38.6842 17.9171 38.6982C17.9392 38.7121 17.9562 38.7339 17.9654 38.76C17.9746 38.7861 17.9754 38.8149 17.9676 38.8415C17.9598 38.8682 17.944 38.8911 17.9227 38.9064L11.7014 41.5395L11.6686 41.5467Z" stroke="#372D95" stroke-width="0.5" stroke-miterlimit="10"/>
<path id="Vector_12" d="M13.7473 44.6043C13.7256 44.6048 13.7044 44.5957 13.6875 44.5786C13.6707 44.5614 13.6592 44.5374 13.6551 44.5108C13.6498 44.4803 13.6539 44.4484 13.6668 44.4217C13.6797 44.395 13.7002 44.3753 13.7243 44.3669C14.7407 44.0708 15.7355 43.669 16.6982 43.1655C16.7099 43.1585 16.7226 43.1546 16.7355 43.1541C16.7484 43.1536 16.7612 43.1565 16.7732 43.1626C16.7851 43.1687 16.7959 43.1779 16.8049 43.1895C16.8138 43.2012 16.8207 43.215 16.825 43.2302C16.833 43.2589 16.832 43.2903 16.8225 43.3182C16.8129 43.3462 16.7953 43.3686 16.7732 43.3813C15.8004 43.8963 14.7938 44.3055 13.7646 44.6043H13.7473Z" stroke="#372D95" stroke-width="0.5" stroke-miterlimit="10"/>
</g>
<defs>
<clipPath id="clip0_302_89">
<rect width="28.6799" height="50" fill="white" transform="translate(0.319824)"/>
</clipPath>
</defs>
</svg>
