<svg width="40" height="44" viewBox="0 0 40 44" fill="none" xmlns="http://www.w3.org/2000/svg">
<g id="step3 icon">
<path id="Vector" d="M23.139 14.5076L23.1471 14.5217L23.1561 14.5354C24.4568 16.5045 25.6866 17.8882 27.8175 19.1113C29.5286 20.0935 31.81 20.9657 35.1539 21.981C32.4806 22.4128 30.3166 23.3117 28.5541 24.5228C26.2595 26.0997 24.6749 28.1855 23.5304 30.3923C22.3875 32.5957 21.6779 34.9306 21.1378 37.0166C20.9614 37.6978 20.8045 38.3454 20.6575 38.9522C20.5138 39.5451 20.3796 40.099 20.2459 40.6071C20.2405 40.5876 20.235 40.568 20.2295 40.5483C18.7831 35.3894 15.7131 24.4397 4.03021 22.0141C9.28577 20.6156 13.1907 18.119 15.8821 14.9343C18.0314 12.3911 19.3917 9.42693 20.0544 6.26946C20.6327 9.15263 21.6712 11.9349 23.139 14.5076Z" fill="#EB712E" stroke="#EB712E"/>
<path id="Vector_2" d="M20.4928 43.721C20.2306 43.7214 19.9752 43.6379 19.7643 43.4827C19.5534 43.3274 19.3983 43.1087 19.3218 42.8589C19.1691 42.4026 18.9909 41.8194 18.8127 41.1349C17.158 35.6585 14.0013 24.4268 1.27285 23.438C0.935266 23.438 0.611513 23.3044 0.372808 23.0667C0.134103 22.8289 0 22.5065 0 22.1703C0 21.8341 0.134103 21.5116 0.372808 21.2739C0.611513 21.0361 0.935266 20.9026 1.27285 20.9026C12.4484 18.8996 18.9145 11.9527 19.0927 1.83654C19.0927 1.50032 19.2268 1.17788 19.4655 0.940145C19.7042 0.702407 20.028 0.568848 20.3655 0.568848C20.7031 0.568848 21.0269 0.702407 21.2656 0.940145C21.5043 1.17788 21.6384 1.50032 21.6384 1.83654C21.7332 5.9462 22.7971 9.97605 24.7441 13.6007C27.0607 17.1249 29.0209 18.3672 38.3127 21.0547C38.6048 21.1269 38.8598 21.304 39.0289 21.552C39.1981 21.8 39.2693 22.1014 39.2291 22.3984C39.1929 22.6924 39.0524 22.9637 38.833 23.1636C38.6137 23.3635 38.3298 23.4788 38.0326 23.4887C26.3479 24.0211 24.0822 33.2499 22.6057 39.3601C22.2748 40.7039 21.9693 41.8955 21.6384 42.8082C21.5653 43.0595 21.416 43.2821 21.2109 43.4455C21.0058 43.6089 20.755 43.7051 20.4928 43.721ZM6.82246 21.9928C15.4014 24.9085 18.6599 32.5907 20.3146 37.7628C21.6638 32.3118 24.0313 24.5535 32.483 21.8914C28.4151 20.9586 24.8828 18.4613 22.6567 14.9444C21.5171 13.1945 20.6582 11.2785 20.111 9.26519C19.0056 12.2488 17.2356 14.9442 14.934 17.1486C12.6325 19.353 9.85911 21.0093 6.82246 21.9928Z" fill="#2E2E2E"/>
</g>
</svg>
